<?xml version="1.0" standalone="no"?>
<!DOCTYPE svg PUBLIC "-//W3C//DTD SVG 20010904//EN"
 "http://www.w3.org/TR/2001/REC-SVG-20010904/DTD/svg10.dtd">
<svg version="1.0" xmlns="http://www.w3.org/2000/svg"
 width="1000.000000pt" height="1000.000000pt" viewBox="0 0 1000.000000 1000.000000"
 preserveAspectRatio="xMidYMid meet">
<metadata>
Created by potrace 1.14, written by Peter Selinger 2001-2017
</metadata>
<g transform="translate(0.000000,1000.000000) scale(0.100000,-0.100000)"
fill="#000000" stroke="none">
<path d="M2249 9996 c-2 -2 -38 -6 -79 -10 -41 -3 -84 -8 -95 -10 -11 -2 -40
-7 -65 -11 -70 -11 -244 -54 -334 -82 -504 -158 -981 -520 -1274 -968 -200
-306 -320 -620 -379 -995 -17 -109 -18 -260 -18 -2920 0 -2660 1 -2811 18
-2920 43 -271 112 -493 227 -725 211 -428 514 -758 930 -1014 67 -41 225 -121
300 -151 30 -12 69 -28 85 -35 57 -25 260 -83 367 -105 243 -50 138 -48 3108
-46 3106 2 2830 -5 3131 71 342 85 640 233 922 458 409 326 710 796 835 1307
72 292 67 43 67 3130 0 1526 -3 2811 -7 2855 -79 847 -641 1621 -1430 1968
-87 39 -107 47 -189 75 -86 30 -300 86 -374 97 -208 32 -231 33 -2996 34
-1510 0 -2748 -1 -2750 -3z"/>
</g>
</svg>
